<svg id="Layer_1" data-name="Layer 1" xmlns="http://www.w3.org/2000/svg" viewBox="0 0 453.16 495.58"><defs><style>.cls-1{fill:#e6be94;}.cls-2{fill:#ff4f19;}.cls-3{fill:#ff8c62;}.cls-4{fill:#ffcd00;}.cls-5{fill:#ffe671;}.cls-6{fill:#00c37a;}.cls-7{fill:#60dc4d;}.cls-8{fill:#4cd7ff;}.cls-9{fill:#aeefff;}.cls-10{fill:#009bca;}</style></defs><path class="cls-1" d="M439.2,215.6c-47-53.5-96-66-96-125,0-64.3-54.3-113.7-149.4-79.3C91.8,48.1,21.2,136.9,21.2,247.6c0,137,111,248,248,248a249.4,249.4,0,0,0,65.1-8.6h0C439.2,456.6,525.2,313.6,439.2,215.6ZM333.7,189.7c-14.5,18.6-54.7,7.7-70.2-18.5-13.7-23.1-8.7-56.2,15-70.8,13.7-8.5,31.8-.1,35.2,15.6,2.8,12.8,8.5,28.7,20.2,43.2C341.1,168,340.7,180.7,333.7,189.7Z" transform="translate(-21.2 -0.02)"/><circle class="cls-2" cx="143.9" cy="135.68" r="47.9"/><circle class="cls-3" cx="155.7" cy="123.68" r="16.8"/><circle class="cls-4" cx="95.9" cy="255.68" r="47.9"/><circle class="cls-5" cx="107.7" cy="243.68" r="16.8"/><circle class="cls-6" cx="151.7" cy="367.48" r="47.9"/><circle class="cls-7" cx="163.5" cy="355.48" r="16.8"/><circle class="cls-8" cx="271.92" cy="407.66" r="47.9"/><circle class="cls-9" cx="283.7" cy="395.68" r="16.8"/><circle class="cls-10" cx="359.9" cy="319.48" r="47.9"/><circle class="cls-8" cx="371.7" cy="307.48" r="16.8"/></svg>