<svg id="Capa_1" enable-background="new 0 0 512 512" height="512" viewBox="0 0 512 512" width="512" xmlns="http://www.w3.org/2000/svg"><g><g><g><g><g><g><circle cx="256" cy="256" fill="#7584f2" r="256"/></g></g></g></g></g><path d="m512 256c0-11.936-.817-23.681-2.398-35.182l-112.946-112.946-287.9 287.9 114.103 114.103c10.849 1.402 21.911 2.125 33.141 2.125 141.385 0 256-114.615 256-256z" fill="#4253ce"/><g><path d="m260.395 198.005-86.749 86.749h92.255l40.621-40.621z" fill="#fff"/></g><g><path d="m282.916 220.526-64.229 64.228h47.214l40.621-40.621z" fill="#e9edf5"/></g><g><path d="m174.298 284.103-48.021 48.021c-8.302 8.302-10.23 20.377-5.498 29.526l-10.99 10.99c-6.673 6.673-7.136 17.03-1.033 23.132 6.103 6.103 16.459 5.64 23.132-1.033l10.99-10.99c9.148 4.732 21.224 2.804 29.526-5.497l94.148-94.149z" fill="#a3d4ff"/></g><g><path d="m108.243 395.198c.172.191.33.39.513.573 6.103 6.103 16.459 5.64 23.132-1.033l10.99-10.99c9.148 4.732 21.224 2.804 29.526-5.497l94.148-94.149h-47.214z" fill="#65b1fc"/></g><g><path d="m325.242 231.811-52.524-52.524 71.414-71.415c14.504-14.504 38.02-14.504 52.524 0 14.504 14.504 14.504 38.02 0 52.524z" fill="#ffce00"/></g><g><path d="m396.656 107.872c-.182-.182-.372-.352-.557-.53l-97.663 97.663 26.806 26.806 71.415-71.414c14.503-14.505 14.503-38.021-.001-52.525z" fill="#fdba12"/></g><g><path d="m238.178 186.633h112.072v47.362h-112.072z" fill="#fa0" transform="matrix(.707 .707 -.707 .707 234.888 -146.441)"/></g><g><path d="m290.073 201.452h47.362v56.805h-47.362z" fill="#ff9500" transform="matrix(.707 -.707 .707 .707 -70.635 289.18)"/></g></g></svg>